HIERARCHY
ROOT Pelvis
{
	OFFSET 0.000000 0.000000 0.000000
	CHANNELS 6 Xposition Yposition Zposition Zrotation Yrotation Xrotation 
	JOINT Left_hip
	{
		OFFSET 0.069463 -0.088608 -0.009542
		CHANNELS 3 Zrotation Yrotation Xrotation
		JOINT Left_knee
		{
			OFFSET 0.030639 -0.359740 -0.005288
			CHANNELS 3 Zrotation Yrotation Xrotation
			JOINT Left_ankle
			{
				OFFSET -0.011068 -0.376034 -0.042462
				CHANNELS 3 Zrotation Yrotation Xrotation
				JOINT Left_foot
				{
					OFFSET 0.023192 -0.053321 0.111332
					CHANNELS 3 Zrotation Yrotation Xrotation
					End Site
					{
						OFFSET 0.000000 0.000000 0.000000
					}
				}
			}
		}
	}
	JOINT Right_hip
	{
		OFFSET -0.067438 -0.088025 -0.006263
		CHANNELS 3 Zrotation Yrotation Xrotation
		JOINT Right_knee
		{
			OFFSET -0.035962 -0.366229 -0.008063
			CHANNELS 3 Zrotation Yrotation Xrotation
			JOINT Right_ankle
			{
				OFFSET 0.013608 -0.375719 -0.040481
				CHANNELS 3 Zrotation Yrotation Xrotation
				JOINT Right_foot
				{
					OFFSET -0.021034 -0.045527 0.114617
					CHANNELS 3 Zrotation Yrotation Xrotation
					End Site
					{
						OFFSET 0.000000 0.000000 0.000000
					}
				}
			}
		}
	}
	JOINT Spine1
	{
		OFFSET -0.002610 0.101823 -0.019986
		CHANNELS 3 Zrotation Yrotation Xrotation
		JOINT Spine2
		{
			OFFSET 0.004114 0.128714 -0.000938
			CHANNELS 3 Zrotation Yrotation Xrotation
			JOINT Spine3
			{
				OFFSET 0.002191 0.048470 0.027684
				CHANNELS 3 Zrotation Yrotation Xrotation
				JOINT Neck
				{
					OFFSET -0.002856 0.198873 -0.044022
					CHANNELS 3 Zrotation Yrotation Xrotation
					JOINT Head
					{
						OFFSET 0.002981 0.062960 0.049860
						CHANNELS 3 Zrotation Yrotation Xrotation
						End Site
						{
							OFFSET 0.000000 0.000000 0.000000
						}
					}
				}
				JOINT Left_collar
				{
					OFFSET 0.073708 0.112550 -0.033440
					CHANNELS 3 Zrotation Yrotation Xrotation
					JOINT Left_shoulder
					{
						OFFSET 0.083291 0.030786 -0.008013
						CHANNELS 3 Zrotation Yrotation Xrotation
						JOINT Left_elbow
						{
							OFFSET 0.245601 -0.011792 -0.027873
							CHANNELS 3 Zrotation Yrotation Xrotation
							JOINT Left_wrist
							{
								OFFSET 0.232258 0.008622 -0.000487
								CHANNELS 3 Zrotation Yrotation Xrotation
								JOINT Left_palm
								{
									OFFSET 0.077300 -0.009457 -0.012851
									CHANNELS 3 Zrotation Yrotation Xrotation
									End Site
									{
										OFFSET 0.000000 0.000000 0.000000
									}
								}
							}
						}
					}
				}
				JOINT Right_collar
				{
					OFFSET -0.075339 0.110574 -0.037874
					CHANNELS 3 Zrotation Yrotation Xrotation
					JOINT Right_shoulder
					{
						OFFSET -0.086522 0.031207 -0.009986
						CHANNELS 3 Zrotation Yrotation Xrotation
						JOINT Right_elbow
						{
							OFFSET -0.237313 -0.011478 -0.019859
							CHANNELS 3 Zrotation Yrotation Xrotation
							JOINT Right_wrist
							{
								OFFSET -0.237599 0.007976 -0.003742
								CHANNELS 3 Zrotation Yrotation Xrotation
								JOINT Right_palm
								{
									OFFSET -0.076920 -0.006943 -0.009920
									CHANNELS 3 Zrotation Yrotation Xrotation
									End Site
									{
										OFFSET 0.000000 0.000000 0.000000
									}
								}
							}
						}
					}
				}
			}
		}
	}
}
MOTION
Frames: 14
Frame Time: 0.100000
-0.226021 -0.106149 0.540608 140.354039 75.898175 -57.790101 10.862250 -5.765832 11.586898 3.281117 -29.345541 4.207591 -12.369950 -3.027457 1.664477 10.321779 20.868938 -12.546850 -7.318733 -3.404836 24.735576 -1.100532 6.248165 1.337143 1.208843 -2.843877 -7.820577 7.582467 -7.436067 -1.626999 1.018684 3.181771 7.188758 -1.994433 -1.105335 16.561353 1.562034 -1.091432 -1.822536 -3.605265 23.615665 6.662314 -11.913887 19.582606 -10.142628 -24.271513 -7.053411 5.222290 -55.261535 -14.794865 22.134777 -162.998398 -69.951415 -164.427810 -10.935438 -9.254133 -15.813565 -6.123111 -0.032391 -4.417425 19.343414 8.657197 7.356414 59.339577 -0.183688 26.763142 -164.489924 71.927431 -148.918454 8.218549 8.370549 -36.734116 11.526926 5.874095 -5.409642 
-0.185717 -0.104266 0.580893 89.919798 79.201451 -108.423413 10.286238 -4.546477 3.681948 3.055037 -20.447384 13.156951 -11.684705 0.300006 4.088377 9.230673 20.040442 -12.501555 -3.073113 -6.835871 26.832562 -0.014553 0.005748 -0.400112 -3.170920 -4.899606 -8.714844 11.372952 -8.791153 0.298852 2.020225 3.704333 13.510843 -0.930105 -3.293763 15.944832 3.169833 -1.769056 -1.604028 -5.871359 22.278077 3.787382 -11.122221 19.240580 -12.897973 -24.335480 -11.052426 6.092884 -54.229553 -15.557626 21.027694 -164.748875 -69.286094 -162.764904 -8.855025 -9.467731 -14.854548 -5.018933 -0.328513 -4.365708 19.639546 10.549762 7.388499 58.636015 -1.549612 25.274323 -164.827095 69.366952 -147.989000 5.162776 8.791026 -36.367056 11.087374 5.979740 -4.705002 
-0.154276 -0.109743 0.602646 41.470319 74.933069 -155.827308 7.426554 3.417040 3.386874 2.339818 -1.795514 6.872019 -7.500053 3.048038 3.676377 7.010935 20.060898 -9.943994 -2.825775 -9.692543 26.525302 0.441089 -7.250554 -1.682755 -3.749549 -6.446781 -7.923392 11.576438 -7.369810 0.328926 3.735255 2.892740 17.012045 -0.904560 -3.897768 16.053224 3.556537 -1.809640 -1.713085 -7.473933 20.302165 2.892941 -11.415082 19.988346 -14.654102 -25.315814 -12.910341 7.208300 -55.001414 -14.678068 19.040003 -165.720016 -69.098894 -161.877054 -7.771498 -8.628283 -12.233434 -5.087834 -1.042655 -6.256407 19.578546 11.826510 8.443079 59.147786 -1.571668 23.852316 -163.830039 68.298865 -147.505364 3.353683 8.654649 -33.555049 11.439548 6.561874 -5.579132 
-0.127620 -0.116858 0.611960 18.508357 67.341712 -175.466382 4.630780 2.285228 1.461940 0.287827 -2.556584 0.497442 -8.268800 0.995240 5.197469 6.293647 20.800160 -10.799305 -4.280888 -10.694410 23.159583 0.631028 -12.610895 -2.073456 -2.891240 -9.618556 -7.018491 9.223962 -5.854190 0.323027 4.474754 2.708863 18.081785 -1.413555 -3.276908 14.548602 3.451747 -1.581635 -1.536424 -8.419585 18.205889 1.656910 -10.897700 18.048903 -15.272521 -23.632076 -11.570793 6.739955 -56.770400 -14.668825 18.895669 -166.125326 -69.375899 -161.715299 -9.205013 -9.682546 -15.040682 -2.711659 -0.543732 -4.441446 17.935576 11.754047 7.993748 60.620203 -1.487848 24.311627 -166.206358 68.698960 -149.822596 3.809152 8.833774 -32.555010 9.206148 6.107375 -4.012507 
-0.105426 -0.119482 0.617628 10.719742 60.867729 177.206997 4.841280 3.515999 1.093460 1.718800 3.099766 5.401017 -6.924689 4.160307 4.097052 6.862625 21.447190 -10.585422 -5.312791 -11.734556 22.884125 -0.100941 -15.918195 -2.299831 -2.635398 -12.085405 -5.776213 6.841820 -5.985280 -1.257970 5.162719 3.194715 19.616830 -2.036147 -2.434260 15.087654 3.686318 -0.837435 -1.493719 -10.547673 14.623468 0.270266 -9.889633 16.669948 -17.718541 -21.886226 -13.691223 7.781496 -58.363013 -14.105868 17.404652 -171.506266 -69.173199 -156.924614 -8.495149 -8.379266 -16.884702 -1.839440 -0.715045 -4.048756 15.770997 15.485949 9.260562 62.984135 -1.353222 23.441224 -164.582607 67.838039 -148.622485 2.003604 7.571382 -31.785315 8.977469 6.319468 -5.341424 
-0.091024 -0.120917 0.617763 7.432683 54.060450 175.046285 7.251780 4.281144 2.395289 1.827955 0.152299 8.136320 -9.571989 2.549209 5.832957 8.567158 21.655671 -12.337992 -6.457203 -12.938323 21.543202 -0.086916 -18.873212 -1.002617 -2.971397 -13.720978 -5.149863 5.410613 -7.040668 -2.652405 5.209870 2.709422 18.868378 -2.796398 -2.228321 15.066701 3.776174 -0.727100 -1.701368 -11.465061 11.692086 0.695173 -8.378171 15.559714 -19.704394 -19.133570 -14.422493 8.369961 -61.680714 -14.294475 16.880341 -176.488069 -70.614095 -152.269067 -8.190665 -7.551867 -21.465221 -0.136861 -0.261583 -2.674628 12.114596 17.673624 9.164347 66.847198 -0.901212 22.997782 -163.878718 68.589031 -147.808114 1.726424 6.452834 -33.525251 7.514917 5.898775 -4.677647 
-0.082718 -0.118115 0.609939 7.447481 49.290519 175.465206 10.971538 4.094419 6.070441 2.076942 -2.712577 8.610501 -14.077956 2.181287 8.532973 11.758384 20.985827 -13.648489 -6.886869 -13.298961 21.643829 0.624983 -20.517652 -0.775530 -3.698822 -14.384941 -4.828139 5.066783 -8.610555 -3.299044 4.851310 2.066129 16.537592 -3.147130 -2.316772 15.685632 3.915019 -1.105608 -1.878719 -11.895987 10.026161 0.719261 -7.377569 14.897610 -20.994317 -17.108074 -13.849709 9.054203 -64.731777 -14.038587 16.551740 172.492036 -70.963420 -143.407069 -7.864470 -8.467366 -29.314596 2.203613 0.381782 -0.147319 9.587023 17.965449 8.527026 70.306899 -0.357235 23.299133 -163.392086 68.889030 -147.247080 2.258159 6.294147 -36.783917 5.266872 4.941259 -3.024442 
-0.069986 -0.113363 0.590929 8.900661 48.593081 177.096639 12.643590 0.881185 10.510249 1.421685 -13.545573 5.067400 -18.655679 -1.274324 9.637119 14.215223 19.335522 -14.794198 -7.591949 -12.667793 20.026728 0.473218 -20.120054 1.612166 -3.092967 -14.839416 -4.776100 3.632565 -9.588338 -4.536657 4.563778 1.557267 14.697299 -3.473160 -1.589209 15.667583 3.799209 -0.923109 -1.418024 -12.131329 8.645477 0.165276 -6.093382 14.487725 -22.467179 -15.052550 -9.565522 8.669053 -68.893447 -13.549141 14.292623 139.115517 -66.761460 -117.420765 1.163871 -5.922368 -48.404718 3.291052 0.052614 5.523989 7.792345 15.422424 7.451148 75.407106 -0.136880 21.868226 -142.052131 65.066166 -128.715550 -3.596982 4.139868 -42.817166 4.308853 4.679728 -0.845894 
-0.049666 -0.107741 0.560663 11.266689 50.163857 179.319509 13.050272 -0.933014 11.792044 0.498345 -21.526889 4.132140 -18.193539 -4.199504 5.656532 13.943729 18.122563 -13.543492 -8.868633 -12.435665 19.330893 0.404765 -18.101597 1.528326 -1.046180 -14.473918 -3.565456 2.203406 -10.136899 -5.738361 4.030157 1.776598 14.075474 -2.980360 -0.982988 14.520429 3.755550 -0.821408 -0.687810 -11.407995 9.271968 -0.236942 -6.582700 14.826397 -23.573248 -13.659219 -1.393686 7.202668 -66.966424 -11.903961 7.114945 118.120736 -58.765928 -100.235384 5.551688 -0.692258 -55.848364 1.187660 -0.938818 6.634810 8.324420 8.145314 5.691565 76.521449 -0.009966 16.960226 -122.901248 55.791045 -111.962279 -7.654436 0.937941 -45.762636 7.033914 5.327505 -0.508704 
-0.021742 -0.098270 0.518272 14.464149 53.107707 -177.867817 11.636632 -1.474567 12.276306 -0.693840 -24.836421 6.437974 -14.814333 -3.990440 -0.268412 12.918533 17.047270 -12.195413 -10.631296 -11.932595 17.850257 -0.461838 -14.720324 2.367349 3.089351 -15.261052 -1.879835 -2.327365 -8.825616 -7.615221 3.942389 2.237404 13.879590 -2.370609 0.142513 13.435777 3.605269 -0.395001 0.510744 -10.702823 9.533631 -1.508930 -7.342962 15.793072 -24.770158 -13.337643 6.580815 6.352214 -62.769892 -7.182250 0.923481 111.418838 -54.682826 -95.941352 9.441623 3.370267 -55.790362 -2.803498 -2.428792 4.801959 9.410933 1.030784 4.909405 72.657983 -2.353560 11.626739 -116.007467 47.370109 -107.790206 -13.004450 -1.366417 -43.095142 11.323994 6.640444 -2.724879 
0.007020 -0.087580 0.467588 16.904501 56.317629 -176.060828 9.102518 0.270658 15.608142 -1.008817 -22.823503 4.170689 -10.340811 -2.568384 -4.453007 10.523371 17.186260 -10.609636 -13.145850 -11.517268 16.503507 -2.099280 -12.882412 2.962218 7.089304 -15.093393 1.656601 -5.775965 -7.980926 -10.361817 3.642850 2.365492 13.336041 -2.367805 1.547279 13.622867 3.216563 -0.063556 1.238137 -10.080174 9.535272 -1.220460 -8.260422 17.169777 -25.993995 -13.678630 12.639781 6.552424 -61.829019 -2.989946 -2.591691 112.720534 -53.944095 -95.859924 8.668631 3.640017 -52.297322 -5.264573 -3.339879 2.564164 10.214709 -4.122303 5.236573 71.451225 -4.991296 8.912469 -115.267197 43.983588 -107.673995 -12.885051 -1.511593 -40.261383 13.910344 7.608360 -4.507969 
0.042132 -0.075531 0.417792 17.670835 60.763805 -176.500731 5.442120 1.489691 18.675754 -1.962765 -21.347903 2.543512 -6.130038 -2.384203 -6.204018 7.225250 19.085078 -10.665722 -16.911684 -11.103118 14.730692 -4.167556 -11.352738 3.991388 11.289902 -14.389039 5.775954 -9.642541 -6.619129 -13.869886 3.259360 2.829669 13.414061 -3.284247 3.092707 14.072955 2.343563 0.570943 1.728735 -9.926308 10.305953 -0.174503 -8.595901 18.789169 -25.898527 -14.076202 13.921041 6.439569 -63.896344 -3.652083 -2.469547 113.383958 -54.088972 -96.617611 9.582226 5.311065 -51.417499 -7.105747 -4.083262 2.977574 10.798044 -5.206676 5.769890 75.068878 -5.767134 10.134078 -117.185771 43.480292 -109.802269 -13.465193 -2.261738 -37.646688 15.737074 9.071768 -6.077052 
0.074511 -0.063602 0.380377 21.740972 66.185752 -173.727300 3.136857 3.322560 21.948579 -2.108352 -18.758129 -1.195701 -3.504905 -1.910410 -6.739814 4.893920 20.669825 -10.254249 -18.522619 -10.105269 12.860414 -4.932833 -9.717746 3.269799 12.356654 -12.039270 5.855465 -9.787223 -5.526513 -14.171963 3.894497 2.749705 13.292184 -3.803747 4.374790 14.686303 1.874126 1.356268 1.142233 -9.466599 13.054375 0.403942 -10.046924 20.948837 -25.131653 -15.866021 11.391925 5.774103 -65.154292 -5.223594 0.135173 114.398518 -55.692113 -98.459702 8.109211 4.939710 -51.021129 -7.763445 -3.990241 3.332523 12.050149 -2.147256 6.615319 75.915061 -3.542507 13.520813 -118.245758 45.970420 -112.148999 -11.519659 -2.372518 -38.115924 16.097305 9.548117 -6.989874 
0.095166 -0.061440 0.359181 31.437795 69.850660 -165.124858 2.768932 4.435555 21.987491 -1.875396 -15.328236 -0.890248 -3.363948 -1.020889 -6.392126 4.745469 20.865442 -10.218043 -17.449034 -10.294788 12.366906 -4.708076 -12.881100 1.642123 9.356902 -12.371644 1.207789 -7.776315 -5.904056 -12.111424 4.502060 2.371709 13.448896 -3.432884 3.749741 14.252510 2.369114 1.270683 0.741477 -8.872176 12.627629 0.168865 -9.269795 20.092601 -25.028962 -15.597166 7.947676 6.005250 -67.116900 -7.077209 2.782577 116.056820 -57.865529 -99.671738 7.417494 4.481129 -52.030590 -5.941506 -3.346966 4.569295 11.973675 0.926636 6.679208 78.245692 -2.041389 15.788775 -119.663256 48.770693 -112.556873 -11.109666 -2.272385 -38.711274 13.985051 9.043891 -6.324412 
